<svg version="1.2" xmlns="http://www.w3.org/2000/svg" viewBox="0 0 37 26" width="37" height="26">
	<title>Beranda</title>
	<defs>
		<clipPath clipPathUnits="userSpaceOnUse" id="cp1">
			<path d="m-56-331h375v812h-375z"/>
		</clipPath>
	</defs>
	<style>
		.s0 { fill: #ffffff } 
	</style>
	<g id="Beranda" clip-path="url(#cp1)">
		<g id="Group 17">
			<g id="-e-hospital-buildings">
				<path id="Path 18" fill-rule="evenodd" class="s0" d="m36.4 22.6v2.6h-35.8v-2.6h2.2q-0.1-0.2-0.1-0.4v-14.7c0-0.7 0.6-1.2 1.3-1.2h6.8v15.6q0 0.4 0.2 0.7h0.8q-0.1-0.2-0.1-0.4v-20.2c0-0.7 0.6-1.2 1.3-1.2h11c0.7 0 1.3 0.5 1.3 1.2v20.2q0 0.2-0.1 0.4h0.8q0.1-0.3 0.1-0.7v-15.6h7.1c0.7 0 1.2 0.5 1.2 1.2v14.7q0 0.2 0 0.4zm-29.9-6.9h-1.8v1.8h1.8zm0-3.2h-1.8v1.8h1.8zm0-3.1h-1.8v1.8h1.8zm2.8 6.3h-1.8v1.8h1.8zm0-3.2h-1.8v1.8h1.8zm0-3h-1.8v1.8h1.8zm12 6.5h-5.3v6.6h5.3zm1.6-10.1c0-2.5-2-4.5-4.4-4.5-2.5 0-4.5 2-4.5 4.5 0 2.4 2 4.4 4.5 4.4 2.4 0 4.4-2 4.4-4.4zm7.1 9.8h-1.8v1.8h1.8zm0-3.1h-1.8v1.8h1.8zm0-3.1h-1.8v1.8h1.8zm2.8 6.3h-1.8v1.8h1.8zm0-3.2h-1.8v1.8h1.8zm0-3.1h-1.8v1.8h1.8zm-13.2-4.7h1.7v2.2h-1.7v1.7h-2.2v-1.7h-1.7v-2.2h1.7v-1.7h2.2z"/>
			</g>
		</g>
	</g>
</svg>