<svg version="1.2" xmlns="http://www.w3.org/2000/svg" viewBox="0 0 30 24" width="30" height="24">
	<title>Beranda</title>
	<defs>
		<clipPath clipPathUnits="userSpaceOnUse" id="cp1">
			<path d="m-173-333h375v812h-375z"/>
		</clipPath>
	</defs>
	<style>
		.s0 { fill: #ffffff } 
	</style>
	<g id="Beranda" clip-path="url(#cp1)">
		<g id="Group 16">
			<g id="-e-list">
				<g id="Group 3">
					<path id="Path 12" class="s0" d="m8.4 8.8q0.4 0.5 0.4 1.2v3.1q0 0.7-0.4 1.1-0.5 0.5-1.1 0.5h-5.3q-0.6 0-1.1-0.5-0.4-0.4-0.4-1.1v-3.1q0-0.7 0.4-1.2 0.5-0.4 1.1-0.4h5.3q0.6 0 1.1 0.4z"/>
					<path id="Path 13" class="s0" d="m8.4 0.5q0.4 0.4 0.4 1.1v3.1q0 0.7-0.4 1.1-0.5 0.5-1.1 0.5h-5.3q-0.6 0-1.1-0.5-0.4-0.4-0.4-1.1v-3.1q0-0.7 0.4-1.1 0.5-0.5 1.1-0.5h5.3q0.6 0 1.1 0.5z"/>
					<path id="Path 14" class="s0" d="m8.4 17.2q0.4 0.5 0.4 1.2v3.1q0 0.7-0.4 1.1-0.5 0.5-1.1 0.5h-5.3q-0.6 0-1.1-0.5-0.4-0.4-0.4-1.1v-3.1q0-0.7 0.4-1.2 0.5-0.4 1.1-0.4h5.3q0.6 0 1.1 0.4z"/>
					<path id="Path 15" class="s0" d="m29.4 8.8q0.4 0.5 0.4 1.2v3.1q0 0.7-0.4 1.1-0.5 0.5-1.2 0.5h-15.7q-0.6 0-1.1-0.5-0.5-0.4-0.5-1.1v-3.1q0-0.7 0.5-1.2 0.5-0.4 1.1-0.4h15.7q0.7 0 1.2 0.4z"/>
					<path id="Path 16" class="s0" d="m29.4 17.2q0.4 0.5 0.4 1.2v3.1q0 0.7-0.4 1.1-0.5 0.5-1.2 0.5h-15.7q-0.6 0-1.1-0.5-0.5-0.4-0.5-1.1v-3.1q0-0.7 0.5-1.2 0.5-0.4 1.1-0.4h15.7q0.7 0 1.2 0.4z"/>
					<path id="Path 17" class="s0" d="m29.8 1.6v3.1q0 0.7-0.4 1.1-0.5 0.5-1.2 0.5h-15.7q-0.6 0-1.1-0.5-0.5-0.4-0.5-1.1v-3.1q0-0.7 0.5-1.1 0.5-0.5 1.1-0.5h15.7q0.7 0 1.2 0.5 0.4 0.4 0.4 1.1z"/>
				</g>
			</g>
		</g>
	</g>
</svg>