<svg version="1.2" xmlns="http://www.w3.org/2000/svg" viewBox="0 0 33 33" width="33" height="33">
	<title>Beranda</title>
	<defs>
		<clipPath clipPathUnits="userSpaceOnUse" id="cp1">
			<path d="m-286-428h375v812h-375z"/>
		</clipPath>
	</defs>
	<style>
		.s0 { fill: #ffffff } 
	</style>
	<g id="Beranda" clip-path="url(#cp1)">
		<g id="gear-option">
			<g id="-e-Group 8">
				<g id="Group 7">
					<path id="Path 19" fill-rule="evenodd" class="s0" d="m32.4 15v3.4c0 0.4 0 0.6-4.3 2.2l-0.2 0.1-0.6 1.4 0.1 0.2c1.9 4 1.8 4.1 1.5 4.5l-2.4 2.3c-0.1 0.1-0.3 0.2-0.5 0.2q-0.5 0-4.2-1.5l-0.1-0.1-1.5 0.6v0.2c-1.6 4.1-1.8 4.1-2.2 4.1h-3.5c-0.4 0-0.6 0-2.2-4.1l-0.1-0.2-1.5-0.6-0.1 0.1c-3.6 1.6-4 1.6-4.2 1.6-0.1 0-0.3-0.1-0.4-0.2l-2.4-2.3c-0.3-0.3-0.4-0.5 1.4-4.6v-0.1l-0.6-1.5h-0.1c-4.3-1.6-4.3-1.7-4.3-2.2v-3.3c0-0.5 0-0.6 4.3-2.3h0.1l0.6-1.5v-0.1c-2-4.1-1.8-4.2-1.5-4.5l2.4-2.4c0.1-0.1 0.3-0.1 0.4-0.1q0.6 0 4.3 1.5l0.1 0.1 1.5-0.6v-0.2c1.6-4.2 1.8-4.2 2.2-4.2h3.4c0.5 0 0.6 0 2.3 4.2l0.1 0.2 1.5 0.5h0.1c3.6-1.6 4-1.6 4.1-1.6 0.2 0 0.4 0 0.5 0.1l2.4 2.4c0.3 0.3 0.4 0.4-1.4 4.6l-0.1 0.1 0.6 1.4 0.2 0.1c4.3 1.5 4.3 1.7 4.3 2.1zm-10.7 1.8c0-3-2.4-5.5-5.5-5.5-3.1 0-5.6 2.5-5.6 5.5 0 3 2.5 5.4 5.6 5.4 3.1 0 5.5-2.4 5.5-5.4z"/>
				</g>
			</g>
		</g>
	</g>
</svg>